# xmcd
#
# Track frame offsets:
#	150
#	17860
#	34375
#	48160
#	71116
#	85383
#	99962
#	118332
#	132562
#	148466
#	161881
#	177269
#	192275
#	207886
#	223580
#	239217
#
# Disc length: 3430 seconds
#
# Revision: 1
# Processed by: cddbd v1.5.2PL0 Copyright (c) Steve Scherf et al.
# Submitted via: audiograbber 1.83.01
#
DISCID=030d6410
DTITLE=Thomas Berge - De luchtballon
DYEAR=1900
DGENRE=
TTITLE0=Thomas Berge - Vanavond
TTITLE1=Thomas Berge - Liefde voor de eerste keer
TTITLE2=Thomas Berge - De kermis
TTITLE3=Thomas Berge - Geef een heel klein beetje
TTITLE4=Thomas Berge - Bij elke ster
TTITLE5=Thomas Berge - Waar zijn jouw dromen gebleven
TTITLE6=Thomas Berge - Lieve Oma
TTITLE7=Thomas Berge - Ik zie de maan die naar me lacht
TTITLE8=Thomas Berge - De horizon
TTITLE9=Thomas Berge - Kon ik maar ontzichbaar zijn
TTITLE10=Thomas Berge - Geniet van de tijd
TTITLE11=Thomas Berge - Alles is zo mooi
TTITLE12=Thomas Berge - Ik krijg weer vleugels
TTITLE13=Thomas Berge - Zie jij de zon nu even niet
TTITLE14=Thomas Berge - Mama, ik mis je zo
TTITLE15=Thomas Berge - Mijn luchtballon
EXTD=
EXTT0=
EXTT1=
EXTT2=
EXTT3=
EXTT4=
EXTT5=
EXTT6=
EXTT7=
EXTT8=
EXTT9=
EXTT10=
EXTT11=
EXTT12=
EXTT13=
EXTT14=
EXTT15=
PLAYORDER=
